<svg xmlns="http://www.w3.org/2000/svg" width="256" height="256" viewBox="0 0 100 100"><rect width="100" height="100" rx="50" fill="#126060"></rect><path fill="#fff" d="M55.62 65.48L55.62 65.48Q54.77 66.22 53.29 66.75Q51.80 67.28 49.89 67.28L49.89 67.28Q47.67 67.28 46.02 66.59Q44.38 65.90 43.75 64.42L43.75 64.42Q38.87 53.18 35.32 44.49Q31.77 35.80 29.65 29.97L29.65 29.97L29.12 29.97Q28.80 37.49 28.54 43.80Q28.27 50.11 27.95 56.15Q27.63 62.19 27.26 68.44Q26.89 74.70 26.47 81.91L26.47 81.91Q25.62 82.22 24.30 82.49Q22.97 82.75 21.49 82.75L21.49 82.75Q15.76 82.75 15.76 78.09L15.76 78.09Q15.76 76.71 15.92 73.21Q16.08 69.72 16.34 64.89Q16.61 60.07 16.98 54.24Q17.35 48.41 17.78 42.42Q18.20 36.43 18.62 30.65Q19.05 24.88 19.47 20.00L19.47 20.00Q20.32 19.15 22.28 18.20Q24.24 17.25 27.10 17.25L27.10 17.25Q30.50 17.25 32.51 18.46Q34.52 19.68 35.69 22.12L35.69 22.12Q37.39 25.83 39.19 30.12Q40.99 34.42 42.79 38.82Q44.59 43.22 46.29 47.56Q47.99 51.91 49.58 55.72L49.58 55.72L50.11 55.72Q52.12 50.42 54.19 45.23Q56.25 40.04 58.22 35.27Q60.18 30.50 61.93 26.26Q63.67 22.02 65.16 18.62L65.16 18.62Q66.32 18.09 68.02 17.67Q69.72 17.25 71.52 17.25L71.52 17.25Q75.02 17.25 76.77 18.31Q78.51 19.37 79.04 21.38L79.04 21.38Q79.47 23.29 80.00 27.69Q80.53 32.09 81.06 37.81Q81.59 43.53 82.12 49.95Q82.65 56.36 83.07 62.35Q83.50 68.34 83.81 73.37Q84.13 78.41 84.24 81.27L84.24 81.27Q83.07 82.01 81.75 82.38Q80.42 82.75 78.62 82.75L78.62 82.75Q76.39 82.75 74.75 81.80Q73.11 80.85 72.90 78.20L72.90 78.20Q72.47 70.99 72.10 63.99Q71.73 57.00 71.41 50.74Q71.09 44.49 70.83 39.19Q70.56 33.89 70.35 30.18L70.35 30.18L69.93 30.18Q67.91 35.58 64.47 43.96Q61.02 52.33 55.62 65.48Z"></path></svg>